<svg width="55" height="55" viewBox="0 0 55 55" fill="none" xmlns="http://www.w3.org/2000/svg">
<path d="M41.768 14.2815C36.7041 7.95115 29.1675 7.06156 25.4803 7.04138C22.5886 6.81043 19.6231 7.55112 17.1886 9.13971C14.1851 11.0997 12.0631 14.26 10.9791 17.6908C9.89521 21.1214 9.79525 24.8106 10.271 28.3782C10.6494 31.2153 11.4287 34.0843 13.1214 36.3754C13.1042 37.8479 13.2592 39.3223 13.604 40.7534C13.8194 41.648 14.2245 42.6506 15.1029 42.9099C15.6972 43.0855 16.3514 42.8461 16.8258 42.4457C17.3004 42.0453 17.6298 41.5023 17.9507 40.9694L18.5526 39.9702C19.4096 40.1416 20.2902 40.1635 21.1601 39.9929C21.5223 39.9218 21.8665 39.85 21.8665 39.85C22.6616 39.6225 23.2043 39.2313 23.4503 39.0472C23.975 38.655 24.383 38.2839 24.7307 37.9463C24.4304 37.3705 24.1304 36.6694 23.9052 35.8447C23.6253 34.8194 23.532 33.8664 23.532 33.0448C23.532 32.4846 23.5759 31.9882 23.6331 31.5679C22.9964 31.6162 22.336 31.6905 21.6685 31.6916C21.0146 31.6915 20.3491 31.6159 19.707 31.3458C19.5076 31.2618 19.4136 31.0313 19.4972 30.8308C19.5807 30.6304 19.81 30.5359 20.0095 30.6199C20.5192 30.8347 21.0733 30.9047 21.6685 30.9046C22.5622 30.9063 23.5339 30.7419 24.5186 30.7402C25.1494 30.7403 25.7912 30.8104 26.4136 31.0567C27.2975 31.4104 27.964 32.0364 28.6266 32.5341C29.2453 33.0037 29.9033 33.3967 30.5961 33.5305H30.5963C30.7553 33.5616 30.9195 33.5777 31.083 33.5777C31.6216 33.5781 32.1369 33.4026 32.4755 33.0573C32.7152 32.8178 32.8618 32.4445 32.86 32.0978C32.8595 31.8298 32.779 31.589 32.6211 31.4104C32.5157 31.2914 32.3869 31.2 32.2275 31.1203C32.0687 31.0409 31.8807 30.9761 31.6749 30.9142C31.2642 30.7879 30.7818 30.6826 30.3325 30.4035C29.7608 30.0426 29.4278 29.5043 29.1523 28.9843C28.8776 28.4607 28.6498 27.9398 28.3476 27.5462C28.0535 27.1607 27.6895 26.8704 27.2639 26.6342C26.8388 26.3984 26.3528 26.22 25.8331 26.0672C24.7936 25.7596 23.6259 25.5623 22.5571 25.1387C21.8456 24.8557 21.1716 24.4644 20.6359 23.8552C20.4927 23.6923 20.5079 23.4437 20.6699 23.2997C20.8319 23.1558 21.0793 23.1711 21.2224 23.334C21.8611 24.0633 22.7964 24.4454 23.8598 24.741C24.9196 25.0384 26.0845 25.2414 27.1303 25.694C27.8262 25.996 28.4754 26.4193 28.9691 27.0676C29.3493 27.5692 29.5863 28.1309 29.8438 28.6154C30.1005 29.1036 30.3671 29.499 30.7473 29.7361C30.9693 29.8765 31.2558 29.9726 31.5739 30.065C31.8914 30.1588 32.2384 30.2482 32.5755 30.4153C32.7995 30.5268 33.0202 30.6768 33.2065 30.8879L33.2066 30.888C33.511 31.233 33.6433 31.6715 33.6429 32.0978C33.6411 32.6525 33.4288 33.2062 33.0311 33.6118C32.5055 34.1417 31.7827 34.3643 31.083 34.3647C30.8686 34.3647 30.6551 34.3437 30.4468 34.303C30.4469 34.303 30.4469 34.303 30.447 34.303H30.4468C29.5678 34.1301 28.816 33.6616 28.1557 33.1628C27.4547 32.6284 26.8314 32.0646 26.1266 31.7889C25.6301 31.5921 25.0928 31.5271 24.5186 31.5272C24.4895 31.5272 24.4589 31.5301 24.4296 31.5304C24.3665 31.9493 24.3149 32.4589 24.3149 33.0447C24.3149 33.8067 24.4013 34.6883 24.6601 35.6364C24.9319 36.6319 25.3222 37.4372 25.6771 38.0387C25.693 38.0658 25.6978 38.0953 25.7068 38.1241C26.2231 38.6518 26.8346 39.2062 27.1195 40.2119C27.2982 40.8437 27.1163 40.8345 27.2975 43.3115C27.3324 43.7876 27.3351 43.9686 27.2239 44.188C26.823 44.9804 25.573 44.5892 24.8075 45.0338C24.046 45.4761 24.055 46.6969 24.6697 47.3295C25.2844 47.9616 26.2632 48.0896 27.1312 47.9478C29.9026 47.4947 31.7429 44.8851 33.1485 42.4419C34.6111 39.8999 35.9632 37.2753 36.868 34.4828C37.4231 32.7701 37.8031 31.0009 38.0076 29.2113C38.1945 28.1111 38.3842 26.4349 38.3803 24.37C38.3742 21.0818 37.862 17.6887 36.4602 14.7545C39.2259 16.5612 40.2879 19.2321 41.153 21.42C41.6396 22.6504 42.757 25.6268 42.2474 29.3762C42.0521 30.8149 41.8105 32.5922 40.6484 34.4663C39.4128 36.4587 37.6727 37.6976 38.1101 38.7874C38.2829 39.219 38.7099 39.4096 38.8127 39.4515C40.2844 40.0536 42.5937 37.7341 43.58 36.4756C44.0185 35.9165 45.8301 33.481 45.9788 28.4385C46.043 26.2557 46.2315 19.8608 41.768 14.2815ZM20.9447 34.5003L20.9449 34.5004C21.2046 34.6455 21.4182 34.8569 21.5738 35.1038C21.7283 35.3509 21.8273 35.6372 21.8281 35.9414C21.8287 36.167 21.7693 36.4035 21.6354 36.6117C21.5184 36.7945 21.2762 36.8473 21.0944 36.7297C20.9126 36.612 20.8601 36.3686 20.9771 36.1858C21.0235 36.1125 21.0446 36.0354 21.0452 35.9414C21.046 35.8167 21 35.6634 20.9117 35.5238C20.8246 35.3841 20.6977 35.2617 20.5661 35.1892C20.2635 35.0196 19.877 34.969 19.4435 34.97C19.2903 34.97 19.1324 34.9758 18.9727 34.9824C18.7567 34.9913 18.5744 34.8225 18.5655 34.6054C18.5566 34.3883 18.7245 34.205 18.9405 34.1961C19.1023 34.1894 19.2709 34.183 19.4435 34.183C19.9274 34.1839 20.4548 34.23 20.9447 34.5003Z" fill="#C33409"/>
</svg>
